{
    "asset" : {
        "generator" : "Khronos glTF Blender I/O v1.2.75",
        "version" : "2.0"
    },
    "scene" : 0,
    "scenes" : [
        {
            "name" : "Scene",
            "nodes" : [
                0
            ]
        }
    ],
    "nodes" : [
        {
            "mesh" : 0,
            "name" : "\u30aa\u30d6\u30b8\u30a7\u30af\u30c8_4_2",
            "rotation" : [
                0.7071068286895752,
                0,
                0,
                0.7071067094802856
            ],
            "scale" : [
                0.0010000000474974513,
                0.0010000000474974513,
                0.0010000000474974513
            ]
        }
    ],
    "materials" : [
        {
            "doubleSided" : true,
            "emissiveFactor" : [
                0.6000000238418579,
                0.8666666746139526,
                1
            ],
            "name" : "\u7269\u7406\u30d9\u30fc\u30b9 (5).1",
            "pbrMetallicRoughness" : {
                "baseColorFactor" : [
                    0.5,
                    0.5,
                    0.5,
                    1
                ],
                "metallicFactor" : 0.5,
                "roughnessFactor" : 0
            }
        },
        {
            "doubleSided" : true,
            "emissiveFactor" : [
                0,
                0,
                0
            ],
            "name" : "Mat.1",
            "pbrMetallicRoughness" : {
                "baseColorFactor" : [
                    0.010022825561463833,
                    0.010022825561463833,
                    0.010022825561463833,
                    1
                ],
                "metallicFactor" : 0.30000001192092896,
                "roughnessFactor" : 0.30000001192092896
            }
        },
        {
            "doubleSided" : true,
            "emissiveFactor" : [
                0,
                0,
                0
            ],
            "name" : "Mat",
            "pbrMetallicRoughness" : {
                "baseColorFactor" : [
                    0.04530028998851776,
                    0.09649884700775146,
                    0.3423916697502136,
                    1
                ],
                "metallicFactor" : 0.30000001192092896,
                "roughnessFactor" : 0.30000001192092896
            }
        },
        {
            "doubleSided" : true,
            "emissiveFactor" : [
                0,
                0,
                0
            ],
            "name" : "Mat.2",
            "pbrMetallicRoughness" : {
                "baseColorFactor" : [
                    0.010022825561463833,
                    0.010022825561463833,
                    0.010022825561463833,
                    1
                ],
                "metallicFactor" : 0.22499999403953552,
                "roughnessFactor" : 0
            }
        }
    ],
    "meshes" : [
        {
            "name" : "\u30e1\u30c3\u30b7\u30e5",
            "primitives" : [
                {
                    "attributes" : {
                        "POSITION" : 0,
                        "NORMAL" : 1,
                        "TEXCOORD_0" : 2
                    },
                    "indices" : 3,
                    "material" : 0
                },
                {
                    "attributes" : {
                        "POSITION" : 4,
                        "NORMAL" : 5,
                        "TEXCOORD_0" : 6
                    },
                    "indices" : 7,
                    "material" : 1
                },
                {
                    "attributes" : {
                        "POSITION" : 8,
                        "NORMAL" : 9,
                        "TEXCOORD_0" : 10
                    },
                    "indices" : 11,
                    "material" : 2
                },
                {
                    "attributes" : {
                        "POSITION" : 12,
                        "NORMAL" : 13,
                        "TEXCOORD_0" : 14
                    },
                    "indices" : 15,
                    "material" : 3
                }
            ]
        }
    ],
    "accessors" : [
        {
            "bufferView" : 0,
            "componentType" : 5126,
            "count" : 1300,
            "max" : [
                986.8855590820312,
                273.3937683105469,
                -604.5451049804688
            ],
            "min" : [
                -989.6493530273438,
                -285.732421875,
                -768.9551391601562
            ],
            "type" : "VEC3"
        },
        {
            "bufferView" : 1,
            "componentType" : 5126,
            "count" : 1300,
            "type" : "VEC3"
        },
        {
            "bufferView" : 2,
            "componentType" : 5126,
            "count" : 1300,
            "type" : "VEC2"
        },
        {
            "bufferView" : 3,
            "componentType" : 5123,
            "count" : 5340,
            "type" : "SCALAR"
        },
        {
            "bufferView" : 4,
            "componentType" : 5126,
            "count" : 6064,
            "max" : [
                1070.730224609375,
                433.99505615234375,
                1.937587677108832e-12
            ],
            "min" : [
                -1070.730224609375,
                -433.9950256347656,
                -884.1678466796875
            ],
            "type" : "VEC3"
        },
        {
            "bufferView" : 5,
            "componentType" : 5126,
            "count" : 6064,
            "type" : "VEC3"
        },
        {
            "bufferView" : 6,
            "componentType" : 5126,
            "count" : 6064,
            "type" : "VEC2"
        },
        {
            "bufferView" : 7,
            "componentType" : 5123,
            "count" : 26358,
            "type" : "SCALAR"
        },
        {
            "bufferView" : 8,
            "componentType" : 5126,
            "count" : 1604,
            "max" : [
                680.7717895507812,
                278.6986389160156,
                -758.267333984375
            ],
            "min" : [
                -690.0206909179688,
                -291.07598876953125,
                -920.5379028320312
            ],
            "type" : "VEC3"
        },
        {
            "bufferView" : 9,
            "componentType" : 5126,
            "count" : 1604,
            "type" : "VEC3"
        },
        {
            "bufferView" : 10,
            "componentType" : 5126,
            "count" : 1604,
            "type" : "VEC2"
        },
        {
            "bufferView" : 11,
            "componentType" : 5123,
            "count" : 6516,
            "type" : "SCALAR"
        },
        {
            "bufferView" : 12,
            "componentType" : 5126,
            "count" : 479,
            "max" : [
                616.2001953125,
                270.5826110839844,
                -798.194580078125
            ],
            "min" : [
                -621.3182983398438,
                -282.92108154296875,
                -1005.0509033203125
            ],
            "type" : "VEC3"
        },
        {
            "bufferView" : 13,
            "componentType" : 5126,
            "count" : 479,
            "type" : "VEC3"
        },
        {
            "bufferView" : 14,
            "componentType" : 5126,
            "count" : 479,
            "type" : "VEC2"
        },
        {
            "bufferView" : 15,
            "componentType" : 5123,
            "count" : 2406,
            "type" : "SCALAR"
        }
    ],
    "bufferViews" : [
        {
            "buffer" : 0,
            "byteLength" : 15600,
            "byteOffset" : 0
        },
        {
            "buffer" : 0,
            "byteLength" : 15600,
            "byteOffset" : 15600
        },
        {
            "buffer" : 0,
            "byteLength" : 10400,
            "byteOffset" : 31200
        },
        {
            "buffer" : 0,
            "byteLength" : 10680,
            "byteOffset" : 41600
        },
        {
            "buffer" : 0,
            "byteLength" : 72768,
            "byteOffset" : 52280
        },
        {
            "buffer" : 0,
            "byteLength" : 72768,
            "byteOffset" : 125048
        },
        {
            "buffer" : 0,
            "byteLength" : 48512,
            "byteOffset" : 197816
        },
        {
            "buffer" : 0,
            "byteLength" : 52716,
            "byteOffset" : 246328
        },
        {
            "buffer" : 0,
            "byteLength" : 19248,
            "byteOffset" : 299044
        },
        {
            "buffer" : 0,
            "byteLength" : 19248,
            "byteOffset" : 318292
        },
        {
            "buffer" : 0,
            "byteLength" : 12832,
            "byteOffset" : 337540
        },
        {
            "buffer" : 0,
            "byteLength" : 13032,
            "byteOffset" : 350372
        },
        {
            "buffer" : 0,
            "byteLength" : 5748,
            "byteOffset" : 363404
        },
        {
            "buffer" : 0,
            "byteLength" : 5748,
            "byteOffset" : 369152
        },
        {
            "buffer" : 0,
            "byteLength" : 3832,
            "byteOffset" : 374900
        },
        {
            "buffer" : 0,
            "byteLength" : 4812,
            "byteOffset" : 378732
        }
    ],
    "buffers" : [
        {
            "byteLength" : 383544,
            "uri" : "data:application/octet-stream;base64,"
        }
    ]
}
